<svg width="16" height="16" viewBox="0 0 16 16" fill="none" xmlns="http://www.w3.org/2000/svg">
<g clip-path="url(#clip0_23764_16283)">
<path d="M11 15H1V1H9.5L11 2.5V15Z" fill="white"/>
<path d="M7 8H2V9H7V8Z" fill="#ADB1B2"/>
<path d="M7 6H4V7H7V6Z" fill="#ADB1B2"/>
<path d="M7 10H2V11H7V10Z" fill="#ADB1B2"/>
<path d="M7 12H6V13H7V12Z" fill="#6FA6D4"/>
<path d="M16 11L8 16V6L16 11Z" fill="#75AD15"/>
<path fill-rule="evenodd" clip-rule="evenodd" d="M1 0H9.4L12 2.6V7.22798L11 6.5V4H9C8.73478 4 8.48043 3.89464 8.29289 3.70711C8.10536 3.51957 8 3.26522 8 3V1H1V15H7V16H1C0.734784 16 0.48043 15.8946 0.292893 15.7071C0.105357 15.5196 0 15.2652 0 15V1C0 0.734784 0.105357 0.48043 0.292893 0.292893C0.48043 0.105357 0.734784 0 1 0ZM9 1V3H11L9 1Z" fill="#798288"/>
</g>
<defs>
<clipPath id="clip0_23764_16283">
<rect width="16" height="16" fill="white"/>
</clipPath>
</defs>
</svg>
